# xmcd
#
# Track frame offsets: 
#        150
#        12100
#        23600
#        35092
#        45764
#        58560
#        70239
#        81134
#        89477
#        104628
#        113749
#        124452
#        134600
#        145511
#        156290
#        167656
#        176932
#        185691
#        196445
#        206409
#        213639
#        224789
#        235973
#        250749
#        260936
#
# Disc length: 3621 seconds
#
# Revision: 2
# Processed by: cddbd v1.5.2PL0 Copyright (c) Steve Scherf et al.
# Submitted via: ExactAudioCopyFreeDBPlugin 1.0
#
DISCID=7e0e2319
DTITLE=Various Artist - The Best of Doo Wop [Real Gone Music]
DYEAR=2017
DGENRE=Rhythm and Blues
TTITLE0=The Skyliners - This I Swear
TTITLE1=The Impalas - Sorry (I Ran All the Way Home)
TTITLE2=The Mystics - Hushabye
TTITLE3=The Sheppards - Island of Love
TTITLE4=The Flamingos - Love Walked In
TTITLE5=Dion and The Belmonts - A Teenager in Love
TTITLE6=The Fleetwoods - Come Softly to Me
TTITLE7=The Clovers - Love Potion No. 9
TTITLE8=The Flamingos - I Only Have Eyes for You
TTITLE9=The Crests - The Angels Listened In
TTITLE10=The Passions - Just to Be with You
TTITLE11=The Genies - Who's That Knocking
TTITLE12=The Falcons - You're So Fine
TTITLE13=The Dells - Dry Your Eyes
TTITLE14=The Eternals - Rockin' in the Jungle
TTITLE15=The Boss-Tones (1950's doo wop group) - Mope-Itty Mope
TTITLE16=The Fireflies - You Were Mine
TTITLE17=The Channels - My Love Will Never Die
TTITLE18=The Capris - There's a Moon Out Tonight
TTITLE19=Maurice Williams and The Zodiacs - Stay
TTITLE20=The Chimes - Once in a While
TTITLE21=The Crests - Step By Step
TTITLE22=The Demensions - Over the Rainbow
TTITLE23=The Paragons - Diamonds and Pearls
TTITLE24=The Crests - Trouble in Paradise
EXTD=
EXTT0=
EXTT1=
EXTT2=
EXTT3=
EXTT4=
EXTT5=
EXTT6=
EXTT7=
EXTT8=
EXTT9=
EXTT10=
EXTT11=
EXTT12=
EXTT13=
EXTT14=
EXTT15=
EXTT16=
EXTT17=
EXTT18=
EXTT19=
EXTT20=
EXTT21=
EXTT22=
EXTT23=
EXTT24=
PLAYORDER=
